<?xml version="1.0" encoding="UTF-8"?>
<svg id="Ebene_1" data-name="Ebene 1" xmlns="http://www.w3.org/2000/svg" viewBox="0 0 1003.48 486.49">
  <defs>
    <style>
      .cls-1 {
        fill: #fff;
      }
    </style>
  </defs>
  <path class="cls-1" d="m724.2,1.26c-13.1,4.7-28.1,21-38.9,42.2-8.2,16-12.3,26.9-29.8,78.9-22.2,66.2-29.9,86.3-42,110.5-9.5,19-22.2,35.2-29.5,38-1.5.6-4.5,1-6.9,1-7.4,0-10.6-5.3-10.6-17.8,0-18.3,4.5-38.5,13.7-61.7,3-7.7,13.7-30.9,23.8-51.5,23.3-47.6,27.5-58.7,27.7-72.3.1-9.6-1.8-15.2-6.7-20.3-9.7-10.1-23.7-7.4-38.5,7.5-8.4,8.4-13,14.9-18.9,26.7-15.2,30.6-26.3,65.8-36.1,114.3-6.2,30.6-12.3,49.3-24,73.6-10.3,21.3-22.7,37.4-32.5,41.9-5.7,2.7-11.7,3.2-13.8,1.1-4.5-4.4-.3-20.5,12.6-48.1,10.1-21.7,12.8-29.4,13.4-38.4.7-9.4-1-13.4-6.5-15.7-8.1-3.4-20,.2-29.8,9.1-16.2,14.5-32.3,51-39.9,90.3-4.4,22.3-5.9,57.6-3.1,69.4,2.7,11.5,8.1,16.9,17,16.9,23-.1,53.3-23.3,81.6-62.5,3.9-5.5,7.5-10.1,7.9-10.3.5-.1,1.1,1.6,1.5,3.9,1.4,8.5,7.5,17.2,15.1,21.2,5.1,2.7,14.9,2.9,22.2.3,14-4.7,34.8-23.4,52.1-46.4,5-6.8,9.4-11.8,9.6-11,.2.7.8,4.9,1.4,9.3,2.3,17.2,6.6,25,13.9,25,4.9,0,8.5-2.8,13.4-10,3.7-5.5,14.1-29.1,24.8-56.6,6.7-17.2,9.7-21.3,14.7-20.7,4.3.5,6.1,5.2,7.4,19.2,1.5,15.3,3.8,23,9,28.9,4.9,5.5,9,7,18.4,6.9,20.2-.4,44.1-13.3,64.9-35.1l9.4-10,2.4,3.7c1.6,2.4,4.4,4.7,8.1,6.5,4.9,2.5,6.8,2.9,14,2.8,19.8,0,39.7-10.8,62.1-33.3,6.5-6.6,12-11.8,12.1-11.6s.8,2.2,1.5,4.6c5,17.4,25.5,17.7,52.8.5,19.4-12.1,38.7-28,47.6-39.3,9.6-12,13-21.6,9.1-25.4-3.5-3.5-10.8-1-28,9.5-14.6,9-21.3,11.8-28.2,11.9-4.4,0-5.7-.4-7.9-2.6s-2.5-3.1-2-7.7c.3-2.9,2.7-10.2,5.2-16.2,9.9-23.4,11-37.3,3.5-44-2.4-2.1-10.4-2.8-14.7-1.2l-2.2.8,2.5-5.6c2.8-6,4.1-15.1,3-20.9-.9-4.6-5.2-8.9-10.7-10.5-2.4-.7-8.3-1.3-13.2-1.2-32.1.3-64.5,20.8-88.2,56.1-8.1,12.1-14.6,24.8-21.9,43-3.2,8-9.1,21.2-13.1,29.5-11.5,23.4-19.5,34.3-28.7,38.9-10,5-15.1,2.9-23.3-9.8-2.9-4.6-6.4-9.1-7.7-10-2.7-1.9-3.6-.9,12.2-12.7,22.2-16.6,40.9-37,49.6-54.2,9.9-19.4,8.4-38.6-3.7-46-18.5-11.3-48.5-1.1-79.8,27.2-3.9,3.4-7.1,5.8-7.1,5.3,0-2.3,5.5-16.2,9.8-24.7,2.4-5,8.7-16.2,14-25,16.7-28,23-42.2,25.3-57.7,2-12.4-1.3-22.3-9-27.5-3.8-2.6-7.8-2.8-13.4-.9Zm175.8,124.6c.4.6-1.8,5.2-4.9,10.3-6.3,10.6-8.2,14.9-13.7,30.2-9.1,25.4-23.7,41.5-37.6,41.5-5.8,0-9-2-10.9-6.6-4.3-10.2,1.7-29.5,13.8-44.3,12-14.9,49.7-36.9,53.3-31.1Zm-157.8,21.5c1.2.8,2.7,3.1,3.3,5,3.3,10.1-9.3,25.8-28.3,34.9-12.1,5.8-28.7,8.6-30.1,5.1-.3-.8,1.6-5.6,4.2-10.7,7.6-14.9,23.2-29.8,35.9-34.4,5.1-1.8,12.4-1.7,15,.1Z"/>
  <path class="cls-1" d="m405.3,80.96c-24.8,4-58.5,28.8-86,63.4-6.9,8.7-17,24.1-21,31.9l-3,6-3.2-7c-8.5-18.2-21-23.2-37.8-15.2-7.8,3.7-21.2,13.9-25.6,19.4-1.5,1.9-3,3.4-3.4,3.4-.5,0-.8-7.6-.8-16.9,0-20.6-2.1-37.5-6-49.4-7.4-22-19-30.4-38.1-27.7-20.6,2.9-41.1,15.2-65,39-20,19.9-42.3,49.7-59.5,79.5-21.8,38.1-44.4,90.4-52.5,122-3.1,11.9-3.4,14.3-3.4,28s.2,15.4,2.2,19c3.1,5.9,7.6,9.6,13.1,11,7.2,1.9,12.4.4,18.2-5.4,8.8-8.8,12.9-18.1,22-50.1,11.1-38.5,19.8-62.2,32.1-87,12.5-25.1,25.1-42.5,37.5-51.8,15.3-11.4,26.6-10.4,32.4,3,2,4.4,2.4,7.5,2.8,18.1,1.1,33-10.1,80.9-40.3,172.7-14.3,43.3-15.5,47.9-16.2,65.2-.6,14.7.5,20.9,4.9,27.1s14.9,9,24,6.3c21.4-6.2,38.2-43.9,52.3-117.1,9.5-49.7,11.7-60.2,15.2-71,6.6-20.7,14.6-34,22.7-37.9,1.9-.9,5.5-1.6,8.1-1.6,3.8,0,5.2.5,7.5,2.8,3.5,3.6,4.5,9.2,3.7,21.6-.8,12.5-4.1,25-15.7,60.1-15.4,46.7-19,61.5-19,78.2,0,12.9,1.8,19,6.9,23.6,11.1,10,28.4,5.7,38.1-9.3,7.8-12.2,12.1-27.5,18.1-65.2,5.1-32.3,7-41.5,12.4-62,12.2-45.3,22.6-72.2,34.2-88,8-10.8,17.8-14.7,24-9.4,2.7,2.3,2.8,2.8,2.7,10.3-.2,9.5-3.1,19.4-17.2,58.4-22.3,61.4-27.6,83.6-27.7,115.4,0,18.2,1.1,26.8,5.2,40,5.3,16.9,15,30.3,25.8,35.6,4.2,2,6.5,2.4,14.5,2.4s10.3-.4,15.2-2.7c7.6-3.5,14.1-9.7,16.9-16.1,3.7-8.2,3.2-23.1-1.4-46.2-7.3-36.3-8.7-50.6-6.8-72,4.3-49.7,15.6-90.3,45.9-166,17.1-42.7,20.8-55.3,20-67.4-.5-7.2-2.5-12-6.6-15.8-5.1-4.7-13.6-6.7-22.4-5.2Z"/>
  <path class="cls-1" d="m470.6,140.96c-9.8,1.9-19.5,9.1-23.2,17.2-2.7,6-2.5,14.5.4,18.7,3.5,5.2,8.3,7.1,21.7,8.5,9.6,1.1,13,1.9,17.2,4.2,5.5,3,10.6,9,11.5,13.6l.6,2.8,2.9-2.8c1.6-1.5,4.2-5.1,5.8-7.8,13.6-24,2.6-49.6-23.5-54.4-6.6-1.2-7.2-1.2-13.4,0Z"/>
</svg>